<svg width="578" height="1100" viewBox="0 0 578 1100" fill="none" xmlns="http://www.w3.org/2000/svg">
<path d="M577.464 551.329C576.079 543.131 566.42 541.5 559.868 539.282C554.529 537.474 549.163 535.914 543.64 534.761C540.88 534.185 538.083 533.81 535.322 533.253C533.032 532.792 532.831 532.242 531.595 530.248C526.719 522.382 517.341 520.491 509.399 525.335C508.029 526.171 506.994 527.614 505.366 527.846C503.235 528.15 500.251 526.944 498.152 526.59C492.053 525.561 485.882 524.879 479.73 524.252C467.952 523.051 456.123 522.39 444.302 521.763C438.347 521.447 432.404 521.151 426.475 520.49C424.24 520.241 417.928 520.684 417.542 517.527C417.259 515.213 421.021 511.223 422.979 510.473C425.213 509.618 427.321 510.692 429.589 509.412C431.586 508.285 433.193 506.433 434.589 504.66C437.255 501.272 440.792 496.991 442.056 492.828C442.957 489.862 441.962 487.419 441.719 484.493C441.474 481.543 442.928 479.172 443.912 476.472C444.96 473.596 445.059 467.652 447.911 466.406C449.621 465.659 451.054 465.901 452.648 464.547C454.417 463.044 455.505 460.895 456.386 458.792C458.02 454.897 459.395 450.747 460.183 446.6C460.653 444.128 461.056 441.42 460.728 438.903C460.369 436.155 458.51 434.42 457.685 431.969C457.034 430.036 458.221 428.713 458.91 426.835C459.513 425.19 459.389 423.125 460.205 421.589C461.151 419.808 463.026 419.781 464.587 418.7C466.788 417.175 467.968 414.785 468.874 412.35C470.511 407.95 471.452 403.217 471.975 398.557C472.248 396.122 472.336 393.659 471.874 391.239C471.35 388.496 469.143 386.085 468.807 383.434C468.452 380.639 470.215 374.958 471.658 372.556C472.706 370.813 474.442 369.83 476.017 368.632C478.153 367.007 479.722 365.096 480.846 362.646C482.858 358.26 483.466 353.163 484.513 348.486C484.955 346.513 485.5 344.442 485.463 342.399C485.402 339.104 483.695 338.153 481.914 335.778C480.24 333.546 481.211 327.783 482.603 325.427C483.449 323.995 485.171 323.583 486.454 322.56C488.158 321.202 489.269 319.466 489.961 317.415C491.41 313.125 491.753 308.237 492.386 303.776C492.725 301.389 493.382 298.719 492.967 296.307C492.522 293.725 490.756 292.126 489.387 290.052C487.066 286.536 487.977 280.95 491.497 278.538C496.293 275.252 497.442 271.615 498.627 266.058C499.849 260.328 502.236 253.383 498.907 248.03C497.983 246.543 495.951 244.887 495.456 243.207C494.981 241.594 495.951 239.664 496.262 238.095C496.664 236.07 496.676 234.522 497.947 232.837C499.248 231.112 500.914 229.847 501.849 227.837C504.344 222.473 503.913 215.294 504.643 209.508C504.964 206.959 505.369 204.327 504.515 201.83C503.623 199.222 501.655 198.127 500.029 196.129C498.399 194.125 498.991 192.092 499.152 189.631C499.219 188.604 499.226 187.548 499.512 186.549C499.723 185.812 501.456 183.475 500.554 184.2C504.917 180.459 507.769 175.768 508.465 170.028C509.131 164.534 510.558 156.187 508.398 150.92C507.587 148.941 505.339 148.235 504.564 146.437C503.738 144.523 504.733 140.551 504.834 138.497C505.12 132.703 510.495 130.677 512.195 125.425C512.978 123.007 512.977 120.733 515.19 119.163C517.177 117.753 519.685 116.89 521.795 115.63C527.067 112.481 529.59 109.394 529.578 103.096C529.55 88.848 530.319 74.618 530.14 60.353C530.038 52.218 530.071 44.076 529.914 35.942C529.855 32.886 530.022 29.365 528.316 26.681C527.539 25.459 526.449 24.498 525.299 23.641C524.66 23.165 521.538 21.251 522.843 22.165C516.904 18.475 509.879 16.944 503.219 15.098C495.972 13.089 488.614 11.646 481.17 10.594C465.849 8.42798 450.412 6.74798 435.017 5.20398C419.658 3.66398 404.34 3.42098 388.951 2.50998C373.465 1.59298 357.99 1.90698 342.511 1.13098C333.667 0.687981 324.832 -0.076018 315.97 0.00498202L264.453 0.143982C256.526 0.141982 248.607 0.74398 240.682 0.91798C225.249 1.25598 209.779 1.28698 194.366 2.14598C178.898 3.00798 163.477 3.17698 148.053 4.81198C132.4 6.47098 116.701 8.07298 101.077 9.96698C92.554 11 84.209 12.608 75.897 14.738C68.799 16.557 61.386 18.255 55.09 22.167C56.578 21.124 53.9 22.773 53.492 23.037C52.434 23.718 51.359 24.442 50.464 25.337C48.4 27.4 47.961 29.784 47.876 32.619C47.68 39.202 47.979 45.852 47.94 52.445C47.854 67.089 48.045 81.64 48.445 96.279C48.617 102.6 47.042 109.402 52.858 113.452C56.434 115.942 63.475 117.833 64.738 122.288C65.544 125.132 66.22 127.347 68.165 129.697C69.732 131.59 72.259 133.056 73.105 135.443C73.867 137.592 73.222 140.135 73.3 142.358C73.372 144.396 73.945 145.75 72.579 147.404C70.425 150.014 69.102 150.893 68.736 154.558C68.389 158.035 68.726 161.546 69.024 165.012C69.318 168.431 69.178 172.202 70.491 175.426C71.845 178.752 74.673 181.897 77.377 184.2C76.289 183.325 77.459 184.394 77.59 184.626C77.963 185.291 78.227 185.836 78.424 186.568C78.802 187.969 78.771 189.666 78.873 191.097C79.151 195.013 77.327 196.229 74.961 199.033C72.896 201.48 72.531 203.901 72.844 207.029C73.269 211.283 73.948 215.542 74.427 219.798C74.787 222.996 75.011 226.724 76.824 229.501C78.64 232.283 81.169 233.145 81.761 236.697C82.276 239.791 82.664 242.685 80.921 245.402C79.136 248.184 77.245 250.166 77.321 253.666C77.443 259.246 78.479 266.023 80.426 271.254C81.335 273.696 82.623 275.973 84.767 277.524C87.955 279.829 88.699 280.765 89.404 284.793C90.034 288.396 88.764 289.403 86.76 292.318C84.371 295.792 84.613 299.073 85.279 303.099C86.182 308.561 86.189 316.588 89.9 321.049C91.502 322.974 94.584 323.572 95.633 325.711C96.053 326.568 95.919 328.043 96.111 328.993C96.418 330.504 97.158 332.097 97.082 333.657C96.952 336.339 94.404 337.153 93.222 339.281C91.397 342.566 93.2 346.834 93.885 350.199C95.153 356.433 95.747 363.063 100.648 367.649C102.744 369.61 105.292 370.887 106.465 373.596C107.626 376.279 109.681 380.762 109.033 383.72C108.301 387.065 105.922 389.67 105.573 393.275C105.187 397.261 106.138 401.498 107.073 405.347C107.868 408.62 108.633 412.182 110.272 415.153C111.173 416.785 112.213 418.005 113.812 418.936C115.334 419.821 116.684 419.969 117.655 421.585C118.909 423.671 119.68 427.605 120.058 430.024C120.513 432.934 117.817 435.546 117.413 438.542C116.425 445.868 119.424 454.601 122.711 461.054C124.077 463.735 125.848 465.37 128.718 466.298C132.236 467.436 132.389 469.991 133.316 473.501C134.123 476.556 136.13 479.923 136.406 483.019C136.723 486.576 134.777 489.366 135.973 493.042C137.004 496.213 139.259 498.938 141.169 501.615C143.232 504.505 145.498 507.933 148.768 509.595C151.089 510.774 153.867 509.906 156.012 511.355C157.596 512.425 161.093 516.424 160.175 518.443C159.17 520.653 154.58 520.129 152.581 520.356C148.44 520.827 144.29 521.182 140.132 521.46C131.432 522.041 122.729 522.627 114.026 523.163C105.707 523.675 97.415 524.28 89.137 525.271C84.75 525.797 80.39 526.426 76.051 527.264C71.649 528.114 71.036 526.609 67.481 524.686C61.552 521.478 53.612 522.007 48.877 526.898C47.257 528.571 46.402 531.607 44.541 532.843C41.785 534.673 36.573 534.554 33.365 535.049C25.349 536.287 17.407 539.178 9.88002 542.149C3.21102 544.782 -0.473973 548.456 0.959027 556.153C7.27203 590.061 15.453 623.66 23.105 657.285C27.016 674.47 31.191 691.576 35.535 708.655C37.587 716.725 38.853 725.02 41.363 732.969C43.491 739.707 47.301 748.336 54.976 750.153C57.253 750.692 60.147 749.395 62.287 750.263C64.335 751.094 65.299 755.325 66.458 757.144C70.326 763.215 76.231 766.353 83.277 767.416C99.692 769.892 116.474 764.979 132.358 761.479C139.825 759.834 148.013 759.67 155.088 756.621C156.727 767.643 160.695 779.015 173.912 778.004C181.468 777.426 188.525 774.003 195.364 771.011C203.043 767.652 210.704 764.252 218.395 760.921C221.909 759.399 225.082 757.959 228.968 757.843C233.077 757.72 237.21 757.968 241.32 758.012C245.283 758.054 249.247 758.098 253.211 758.129C255.193 758.144 257.175 758.165 259.157 758.164C260.028 758.164 262.688 757.686 263.499 758.113C265.425 759.127 264.486 764.189 264.437 765.871C264.306 770.295 264.374 774.73 264.363 779.156C264.343 787.959 264.324 796.763 264.304 805.566C264.147 875.225 263.965 944.884 263.764 1014.54C263.714 1032.17 263.651 1049.8 263.614 1067.42C263.597 1075.62 263.357 1083.86 263.562 1092.05C263.769 1100.33 271.133 1099.76 277.808 1099.85C286.36 1099.97 294.965 1100.14 303.513 1099.78C306.289 1099.66 310.244 1099.73 312.499 1097.84C314.664 1096.01 314.364 1092.86 314.358 1090.31C314.314 1072.87 314.269 1055.43 314.223 1037.98C314.043 968.72 313.873 899.459 313.694 830.197C313.649 812.666 313.607 795.136 313.564 777.605C313.554 773.811 313.63 770.004 313.506 766.212C313.434 764.024 312.313 758.796 314.554 758.006C315.424 757.7 317.3 758.147 318.261 758.169C320.21 758.213 322.168 758.166 324.117 758.157C328.509 758.138 332.902 758.095 337.294 758.026C341.204 757.965 345.135 757.753 349.045 757.864C353.295 757.985 356.782 759.728 360.615 761.388C368.021 764.596 375.399 767.87 382.793 771.105C393.155 775.639 410.584 784.236 418.438 771.342C421.115 766.948 422.094 761.637 422.841 756.62C427.69 758.71 433.022 759.196 438.176 760.064C443.737 761.001 449.192 762.469 454.711 763.612C465.411 765.828 476.112 768.093 487.1 767.908C494.954 767.776 503.468 766.452 509.047 760.382C510.67 758.617 511.953 756.529 513.082 754.423C513.723 753.228 514.255 750.622 515.424 750.026C516.321 749.569 518.282 750.397 519.311 750.425C521.646 750.489 523.969 749.871 526.022 748.763C534.327 744.281 536.874 733.428 538.62 724.968C540.781 714.497 543.526 704.241 546.195 693.893C552.221 670.533 556.936 646.812 562.372 623.309C565.293 610.68 568.366 598.085 571.082 585.41C572.409 579.216 573.605 572.995 574.902 566.794C575.931 561.879 578.232 556.415 577.464 551.329ZM75.96 551.089C78.399 548.881 77.32 544.211 79.655 542.482C80.553 541.817 82.422 542.155 83.489 542.094C85.802 541.962 88.119 541.769 90.428 541.593C99.731 540.882 109.013 539.971 118.329 539.427C123.065 539.15 127.84 538.698 132.584 538.645C135.179 538.616 138.63 539.448 141.057 538.294C140.823 542.378 142.036 550.688 145.778 553.471C142.472 554.035 139.698 555.49 137.525 558.064C136.823 558.895 136.414 559.869 135.411 560.285C134.171 560.799 131.556 560.082 130.228 559.991C120.81 559.343 111.452 558.05 102.027 557.411C92.664 556.776 83.323 556.017 73.98 555.13C71.697 554.913 69.418 554.699 67.161 554.285C65.922 554.058 63.069 554.067 62.145 553.306C60.966 552.333 61.593 549.705 61.349 549.376C64.217 553.128 72.355 554.353 75.96 551.089ZM138.389 595.214C138.66 600.821 138.21 606.527 139.399 612.055C134.293 611.702 128.658 613.081 123.588 613.674C117.882 614.342 112.188 615.153 106.487 615.872C96.868 617.085 87.405 619.13 77.971 621.304C74.027 622.213 73.117 621.306 72.301 617.464C71.39 613.175 70.542 608.867 69.63 604.574C68.411 598.836 67.256 593.083 66.206 587.312C65.21 581.844 64.924 575.985 63.478 570.63C80.871 571.505 98.242 572.799 115.646 573.459C119.796 573.616 123.916 573.851 128.045 574.314C130.259 574.562 134.416 574.102 136.433 575.088C138.597 576.147 137.666 580.114 137.765 582.273C137.962 586.587 138.181 590.9 138.389 595.214ZM80.688 640.898C83.018 640.314 85.355 639.759 87.698 639.232C98.02 636.911 108.464 635.128 118.975 633.922C123.99 633.347 129.059 632.928 134.036 632.089C136.449 631.682 140.006 630.184 140.646 633.154C140.922 634.435 140.599 635.905 140.625 637.21C140.682 640.078 140.969 642.957 141.174 645.818C141.619 652.031 142.133 658.24 142.385 664.465C122.83 663.395 102.245 663.209 83.348 657.504C79.306 656.284 79.462 650.25 78.811 646.645C78.611 645.534 78.115 644.18 78.166 643.043C78.261 640.928 78.405 641.471 80.688 640.898ZM64.469 644.784C64.909 646.708 65.357 648.631 65.808 650.553C63.91 649.617 58.816 649.328 58.38 646.679C60.426 646.101 62.465 645.492 64.469 644.784ZM51.179 597.353C53.536 606.593 55.069 616.299 58.657 625.166C57.155 625.555 55.662 625.977 54.171 626.404C53.975 621.731 52.154 616.9 51.136 612.346C49.886 606.752 48.486 601.196 47.133 595.627C45.901 590.558 44.65 585.489 43.656 580.367C42.735 575.622 41.919 570.721 39.767 566.345C41.229 566.711 42.694 567.142 44.208 567.218C46.784 577.204 48.629 587.361 51.179 597.353ZM43.304 546.709C43.076 548.12 42.874 549.54 42.752 550.964C40.134 549.814 35.428 550.745 33.314 548.749C36.567 547.787 40.2 548.206 43.304 546.709ZM35.179 633.236C34.416 633.564 33.673 633.932 32.949 634.34C31.291 627.133 29.688 619.913 28.034 612.705C27.262 609.342 26.48 605.98 25.675 602.624C25.33 601.186 24.982 599.748 24.628 598.312C24.443 597.56 23.69 593.656 23.817 594.372C22.627 587.642 20.714 581.006 19.083 574.374C17.989 569.925 17.994 562.898 15.032 559.253C18.436 560.546 21.866 561.676 25.328 562.787C28.329 563.749 28.488 564.637 29.152 567.708C30.88 575.706 32.878 583.668 35.161 591.525C37.404 599.245 39.464 607.099 40.893 615.016C41.619 619.04 42.043 623.132 43.094 627.093C43.2 627.493 44.02 629.334 43.862 629.653C43.697 629.983 41.729 630.421 41.339 630.571C39.25 631.374 37.204 632.287 35.179 633.236ZM64.425 734.529C63.978 735.07 59.606 734.921 58.788 734.833C56.581 734.593 56.966 733.113 56.518 731.015C55.767 727.504 54.984 724.007 54.085 720.53C52.351 713.828 51.019 707.053 49.53 700.296C48.121 693.901 46.323 687.6 44.855 681.219C44.064 677.781 43.235 674.341 42.517 670.887C41.949 668.156 41.84 664.935 40.201 662.571C43.032 663.354 45.997 663.81 48.798 664.666C51.503 665.493 50.759 666.315 51.086 668.861C52.14 677.071 54.363 685.322 55.989 693.444C57.631 701.65 59.308 709.856 61.346 717.975C62.303 721.789 63.48 725.583 64.068 729.478C64.204 730.379 65.029 733.797 64.425 734.529ZM78.541 731.294C77.567 727.247 76.668 723.183 75.802 719.112C74.07 710.97 72.471 702.799 70.651 694.676C69.584 689.915 68.512 685.15 67.514 680.374C66.73 676.621 66.425 672.544 64.614 669.097C67.388 669.823 69.371 669.816 70.309 672.895C71.162 675.695 71.448 678.757 72.141 681.61C74.074 689.567 75.744 697.584 77.719 705.532C79.022 710.776 80.007 716.066 81.274 721.309C82.301 725.559 84.009 731.019 88.677 732.474C86.834 732.54 84.984 732.583 83.147 732.767C82.196 732.862 80.565 733.516 79.734 733.29C78.69 733.007 78.862 732.622 78.541 731.294ZM143.128 744.038C135.542 750.073 122.403 749.759 113.291 750.725C102.202 751.9 89.738 755.097 79.937 748.367C90.589 746.819 101.245 745.955 111.959 745.018C122.109 744.131 132.955 743.558 142.852 741.069C142.932 742.085 143.505 743.008 143.128 744.038ZM147.219 716.03C138.149 716.387 129.083 716.856 120.011 717.172C115.353 717.334 110.693 717.458 106.032 717.505C103.823 717.527 101.608 717.47 99.4 717.517C98.414 717.538 96.45 718.032 95.542 717.725C93.784 717.131 93.893 714.119 93.503 712.391C92.499 707.933 91.49 703.482 90.594 698.999C88.956 690.806 88.068 681.527 84.704 673.829C92.985 675.359 101.645 676.036 110.016 677.072C118.476 678.119 126.954 679.017 135.429 679.932C137.281 680.132 139.137 680.408 140.994 680.552C141.889 680.621 143.546 680.339 144.297 680.984C146.027 682.472 145.615 687.808 145.78 690.095C146.404 698.752 147.255 707.359 148.227 715.985C147.89 716 147.554 716.015 147.219 716.03ZM418.793 544.628C415.692 548.63 412.57 556.786 415.459 561.584C412.718 560.883 409.784 561.557 407.024 561.8C403.91 562.074 400.776 562.215 397.654 562.375C391.158 562.708 384.657 562.914 378.154 563.053C381.582 562.478 383.769 557.298 384.802 554.483C385.52 552.528 385.387 550.957 385.717 548.976C386.086 546.762 387.641 545.628 389.291 544.113C391.169 542.389 392.666 542.274 395.14 542.102C397.91 541.909 400.554 541.021 402.921 539.555C404.519 538.565 405.917 536.87 407.764 536.338C409.987 535.698 412.493 536.584 414.715 536.763C414.017 536.877 415.055 539.648 415.228 540.091C415.961 541.965 417.054 543.558 418.793 544.628ZM373.93 521.232C371.395 520.554 369.231 521.672 367.756 519.031C366.622 516.999 366.765 514.255 366.166 512.044C368.815 511.767 371.797 512.022 374.24 510.776C375.188 510.292 376.037 509.575 376.826 508.756C375.75 510.126 374.67 511.603 374.067 513.157C373.058 515.759 373.784 518.554 373.93 521.232ZM371.611 462.482C369.631 465.649 369.203 468.216 370.341 471.781C371.346 474.928 372.543 477.472 370.469 480.453C368.505 483.275 365.427 482.58 362.456 483.474C359.57 484.342 357.614 486.187 355.795 488.533C353.426 491.615 349.893 494.266 351.653 498.498C352.925 501.557 353.703 504.864 350.009 506.578C348.496 507.28 346.801 507.298 345.346 508.201C343.542 509.319 342.202 511.211 340.947 512.88C338.849 515.67 337.581 518.246 333.683 518.145C337.047 516.504 338.139 511.307 339.426 508.146C341.014 504.245 344.222 499.2 342.894 494.867C341.501 490.322 338.252 489.284 340.084 484.173C340.685 482.496 341.07 480.852 342.601 479.779C344.295 478.591 346.351 478.392 347.911 476.896C350.525 474.39 352.041 470.558 353.283 467.24C354.578 463.783 357.129 458.445 356.246 454.711C355.871 453.127 354.884 451.738 353.893 450.481C353.154 449.543 351.356 448.299 351.052 447.177C350.527 445.242 352.083 441.527 353.564 440.377C354.872 439.362 356.779 439.43 358.128 438.375C359.712 437.137 360.414 435.184 361.087 433.355C362.788 428.73 363.926 423.865 365.267 419.126C366.497 414.778 367.927 411.59 364.981 407.633C364.014 406.333 362.428 405.016 362.153 403.329C361.856 401.507 363.083 398.155 363.657 396.425C364.793 392.999 367.776 392.259 370.1 389.853C372.839 387.018 373.053 382.03 373.991 378.393C375.017 374.414 376.505 369.942 374.251 366.148C372.359 362.962 368.655 361.282 369.473 357.225C370.221 353.513 370.664 350.006 373.951 347.762C377.373 345.427 379.757 344.146 380.47 339.801C381.114 335.881 381.783 331.961 382.425 328.036C383.292 322.735 382.114 319.448 378.951 315.278C377.109 312.85 377.281 310.028 378.494 307.148C379.8 304.047 383.361 303.092 384.949 300.218C386.737 296.982 386.472 291.717 387.329 288.082C388.419 283.458 388.757 279.771 386.147 275.605C383.779 271.825 381.641 270.127 382.055 265.376C382.4 261.422 384.712 261.59 386.918 258.762C388.887 256.239 388.614 252.592 389.072 249.587C389.833 244.594 391.511 239.076 389.452 234.187C388.055 230.87 385.279 228.224 385.024 224.502C384.923 223.031 384.929 221.203 385.416 219.786C386.106 217.776 387.446 217.33 388.861 215.913C391.574 213.197 391.601 208.404 392.128 204.84C392.756 200.595 393.801 196.017 393.295 191.712C393.059 189.707 392.34 187.884 391.207 186.222C389.972 184.41 387.823 183.426 386.647 181.692C385.504 180.006 385.956 174.882 386.753 172.947C387.346 171.509 388.957 170.848 389.928 169.677C391.314 168.006 391.55 166.116 391.839 164.019C392.577 158.66 393.32 153.179 393.763 147.789C393.943 145.604 394.032 143.314 392.552 141.534C391.514 140.285 389.768 139.742 388.806 138.429C388.023 137.36 387.629 135.93 387.783 134.572C388.013 132.539 388.335 132.805 390.215 132.743C402.04 132.353 413.82 131.744 425.623 130.886C425.521 133.098 426.507 135.91 425.105 137.844C423.625 139.887 420.914 140.409 419.735 142.882C418.465 145.545 418.685 149.3 418.515 152.157C418.325 155.345 417.884 158.563 417.821 161.753C417.768 164.469 417.992 167.304 420.319 169.044C422.099 170.375 425.064 170.577 425.813 173.033C426.442 175.099 425.685 178.943 425.521 181.113C425.291 184.174 424.168 185.492 421.971 187.528C417.676 191.507 417.376 197.504 417.083 203.038C416.946 205.622 416.484 208.49 417.356 210.98C418.268 213.582 420.525 215.036 422.052 217.195C425.087 221.485 422.4 227.577 419.061 230.756C417.063 232.659 415.17 234.362 414.223 237.033C413.201 239.915 413.036 243.142 412.491 246.136C411.929 249.223 410.832 253 411.964 256.076C412.904 258.631 415.71 259.761 416.78 262.066C417.731 264.114 416.555 267.365 416.241 269.494C415.701 273.145 413.173 274.281 411.22 277.18C407.822 282.225 407.344 289.977 406.57 295.859C406.214 298.557 405.768 301.649 407.591 303.906C408.844 305.457 411.983 306.168 412.622 308.001C414.537 313.492 407.615 316.216 404.533 318.741C399.63 322.758 399.672 331.792 398.691 337.567C398.185 340.549 397.258 343.676 398.075 346.683C398.973 349.991 401.513 352.135 403.592 354.659C408.708 360.87 400.662 363.44 396.888 366.623C392.068 370.688 391.422 379.609 391.029 385.477C390.788 389.085 391.576 392.026 394.188 394.592C396.829 397.187 397.765 398.461 396.996 402.307C396.49 404.839 396.146 406.86 393.76 408.126C391.274 409.446 388.7 409.907 386.928 412.305C385.159 414.697 384.448 418.092 383.58 420.897C382.526 424.302 381.414 428.127 382.217 431.708C382.162 433.108 384.196 438.048 385.168 440.484C386.331 443.398 387.295 446.275 385.081 448.959C383.28 451.142 380.321 452.316 378.199 454.167C375.53 456.499 373.48 459.492 371.611 462.482ZM355.836 542.879C355.388 547.163 351.324 550.959 347.321 552.104C342.559 553.466 338.466 550.824 340.676 545.631C341.996 542.527 345.244 536.956 348.491 535.671C352.938 533.911 356.224 538.94 355.836 542.879ZM316.902 464.22C317.542 463.347 319.112 463.229 320.019 462.751C321.482 461.979 322.592 460.976 323.33 459.508C324.835 456.515 324.795 452.536 324.813 449.271C324.827 446.931 325.144 444.575 325.078 442.24C325.043 440.998 324.974 439.689 324.417 438.555C324.115 437.94 322.331 436.142 322.89 436.955C320.755 434.642 319.138 434.824 319.028 431.448C318.956 429.248 318.276 427.067 320.365 425.808C322.94 424.255 325.08 424.388 326.313 421.132C327.331 418.442 327.061 415.315 326.906 412.509C326.736 409.413 327.075 406.155 326.535 403.101C325.859 399.279 323.507 398.765 321.421 396.044C320.106 394.329 319.689 389.916 320.387 387.853C321.18 385.508 324.163 385.062 325.825 383.398C328.248 380.971 328.226 377.054 328.261 373.847C328.295 370.697 328.5 367.506 328.446 364.36C328.386 360.898 327.542 358.88 324.95 356.656C322.557 354.602 321.508 353.577 321.445 350.321C321.373 346.565 323.465 346.067 325.832 343.469C328.373 340.68 328.353 337.444 328.175 333.857C327.897 328.233 329.823 320.227 326.407 315.309C324.623 312.739 321.733 312.134 321.878 308.586C321.991 305.812 324.246 305.853 326.299 304.461C331.154 301.17 330.378 294.353 330.007 289.261C329.787 286.239 330.157 282.844 329.381 279.915C328.498 276.578 325.573 275.292 323.737 272.653C322.581 270.993 321.739 267.237 322.294 265.243C322.889 263.108 325.651 262.77 326.955 260.872C328.348 258.847 328.088 255.813 328.293 253.463C328.555 250.464 328.813 247.438 328.597 244.427C328.409 241.8 327.902 239.056 326.405 236.835C324.855 234.534 322.792 233.679 322.348 230.81C321.901 227.924 322.035 226.969 324.524 225.477C327.426 223.737 329.661 222.03 329.784 218.432C329.899 215.083 329.573 211.612 329.514 208.253C329.453 204.752 329.585 200.278 327.568 197.247C325.656 194.373 322.054 192.937 321.654 189.177C321.269 185.568 324.635 185.932 327.006 184.418C331.941 181.268 330.095 171.657 330.051 166.564C330.028 163.88 329.976 160.284 327.858 158.291C326.628 157.134 325.102 157.217 323.668 156.525C321.583 155.518 321.967 154.641 322.041 152.429C322.093 150.862 321.764 148.826 322.172 147.307C322.67 145.455 324.112 144.82 325.44 143.587C328.65 140.603 327.773 137.203 327.361 133.217C343.044 133.995 358.736 132.991 374.424 132.997C374.21 134.674 374.589 136.454 373.685 137.96C372.686 139.624 370.611 140.495 369.399 142.016C368.277 143.423 367.679 145.073 367.377 146.83C367.194 147.894 367.16 148.987 367.106 150.063C367.083 150.531 366.688 153.657 367.212 151.641C366.765 154.36 366.382 157.145 366.57 159.906C366.658 161.198 366.839 162.493 367.294 163.712C367.543 164.378 369.019 166.698 368.741 166.02C369.982 168.433 372.868 169.275 374.594 171.22C376.594 173.475 375.679 175.792 375.485 178.562C375.202 182.606 373.634 183.852 371.068 186.763C368.951 189.166 368.248 191.769 367.835 194.875C366.91 201.824 365.083 209.542 369.694 215.421C371.675 217.946 373.952 219.998 373.367 223.459C372.724 227.258 369.572 228.469 367.378 231.226C365.599 233.461 365.259 236.009 364.945 238.764C364.505 242.626 363.318 247.16 363.956 251.036C364.501 254.352 366.91 256.455 368.78 259.052C370.597 261.577 369.985 264.394 369.348 267.406C368.173 272.968 361.268 275.078 359.87 280.968C358.476 286.842 357.301 295.394 361.54 300.319C363.626 302.742 366.327 304.238 366.286 307.734C366.242 311.505 364.227 312.325 361.251 313.998C358.388 315.607 355.705 317.331 354.484 320.513C353.71 322.532 353.411 324.832 353.042 326.947C352.878 327.888 352.728 328.832 352.598 329.779C352.529 330.283 351.828 334.693 352.4 332.611C351.639 335.909 352.98 338.697 354.984 341.247C356.679 343.403 359.642 345.633 359.955 348.547C360.172 350.565 359.302 353.795 358.871 355.787C358.178 358.992 355.625 359.677 352.939 361.027C347.385 363.817 346.896 370.351 345.688 375.871C344.99 379.063 344.514 382.448 345.777 385.575C346.942 388.454 350.848 390.329 351.313 393.334C352.116 398.52 347.495 401.306 343.819 403.377C337.608 406.875 336.638 414.92 335.221 421.363C334.517 424.561 333.221 427.768 334.85 430.848C336.085 433.183 339.275 435.282 339.606 438.006C340.372 444.312 333.28 443.893 330.761 447.81C328.454 451.398 327.437 456.262 325.925 460.231C324.579 463.764 322.588 467.425 323.809 471.258C324.672 473.965 328.195 477.214 327.821 480.157C327.474 482.89 323.786 483.618 321.752 484.701C322.03 482.459 321.926 479.94 320.868 477.89C320.331 476.85 319.62 476.052 318.65 475.407C317.933 474.93 316.581 474.825 316.123 474.043C315.345 472.714 316.373 470.209 316.529 468.86C316.676 467.616 316.181 465.204 316.902 464.22ZM322.104 531.386C327.639 530.859 333.64 529.068 339.071 531.11C337.39 534.192 332.826 538.441 329.073 537.541C327.202 537.092 325.188 535.808 323.719 534.601C323.3 534.257 320.601 530.938 322.104 531.386ZM413.054 501.79C413.216 504.685 411.543 507.699 408.843 509.206C406.926 510.276 403.333 510.471 401.627 509.116C399.022 507.048 400.911 504.091 402.978 502.361C404.339 501.223 405.822 501.403 407.487 500.938C409.549 500.362 411.621 499.135 413.183 497.68C412.911 499.021 412.98 500.434 413.054 501.79ZM416.417 429.866C409.136 435.759 404.203 451.729 409.319 460.179C410.14 461.535 411.633 462.68 411.704 464.313C411.764 465.679 410.082 469.571 409.136 470.477C407.854 471.705 405.722 471.604 404.179 472.366C402.081 473.403 400.292 475.435 398.848 477.212C395.542 481.277 393.942 485.274 394.1 490.483C394.21 494.113 392.218 498.814 388.792 500.166C387.08 500.841 385.307 500.611 383.65 501.642C382.063 502.629 380.65 504.083 379.387 505.573C380.003 504.706 380.593 503.847 381.168 503.083C383.044 500.591 384.626 498.204 383.356 495.011C382.361 492.508 379.162 490.667 380.259 487.865C381.314 485.169 383.962 483.145 386.317 481.758C389.137 480.097 390.952 478.021 392.892 475.409C396.344 470.76 401.276 464.954 398.536 458.88C397.297 456.134 397.817 455.944 399.007 453.215C400.193 450.497 400.174 448.199 402.834 446.431C405.304 444.789 407.022 443.975 408.333 441.134C409.837 437.876 410.608 434.291 411.294 430.787C411.889 427.744 412.733 424.51 412.693 421.396C412.646 417.754 410.769 415.07 409.745 411.723C408.863 408.844 409.459 404.801 410.334 401.943C411.08 399.506 412.998 399.257 414.869 397.636C418.784 394.244 419.347 387.233 420.388 382.462C421.05 379.428 421.597 376.177 421.009 373.083C420.437 370.068 418.031 367.879 417.454 364.944C416.987 362.568 417.9 358.587 418.727 356.304C419.632 353.805 422.327 352.855 423.713 350.613C426.805 345.613 426.39 337.814 427.38 332.153C427.891 329.231 428.506 326.196 427.398 323.338C426.379 320.711 423.587 319.085 422.659 316.541C420.413 310.378 427.149 308.703 429.137 304.313C430.334 301.669 430.403 298.661 430.846 295.839C431.456 291.947 432.452 288.123 433.052 284.228C433.58 280.797 433.08 278.695 430.932 276.008C428.71 273.228 428.59 271.111 429.158 267.59C429.723 264.088 432.605 263.576 434.622 260.892C436.516 258.372 437.023 255.316 437.53 252.285C438.478 246.61 442.165 237.826 438.567 232.535C437.693 231.249 436.177 230.345 435.557 228.882C434.951 227.452 435.359 225.921 435.488 224.421C435.813 220.644 436.04 219.196 438.182 216.299C440.191 213.581 440.464 210.147 440.892 206.904C441.198 204.582 441.486 202.257 441.715 199.927C441.807 198.995 441.89 198.063 441.962 197.13C441.991 196.746 442.513 193.434 441.966 194.763C443.206 189.716 438.292 188.242 437.007 184.203C435.866 180.617 436.761 175.461 439.53 172.987C443.394 169.533 443.847 167.047 444.186 161.976C444.479 157.577 444.934 153.17 445.347 148.78C445.74 144.604 445.708 142.131 441.984 139.742C438.527 137.525 437.146 135.252 438.45 130.975C438.946 129.348 438.356 129.429 440.462 129.187C441.997 129.011 443.529 129.038 445.068 128.831C450.858 128.054 456.653 127.35 462.46 126.709C461.782 131.758 459.695 140.306 462.75 144.91C464.026 146.833 467.073 147.582 467.708 149.788C468.094 151.131 467.679 155.661 467.26 157.023C466.58 159.236 463.78 160.262 462.387 162.068C460.656 164.314 459.786 167.119 459.23 169.862C458.219 174.851 457.093 181.442 458.088 186.483C458.673 189.447 460.244 190.075 462.423 191.776C464.575 193.456 464.278 195.257 463.857 197.806C463.418 200.454 463.126 202.841 461.349 204.955C459.265 207.434 457.109 209.468 455.745 212.488C453.531 217.387 452.585 224.28 452.878 229.626C453.036 232.517 453.833 234.792 455.617 237.061C457.981 240.068 457.432 241.371 456.95 245C456.544 248.059 456.444 249.24 453.648 250.833C450.702 252.512 449.539 254.749 448.546 257.959C446.869 263.382 444.417 271.993 447.367 277.323C448.497 279.365 451.384 280.909 451.944 283.223C452.388 285.055 451.47 289.939 450.698 291.604C449.778 293.587 447.322 294.581 445.666 295.809C443.228 297.617 442.24 300.257 441.346 303.065C439.682 308.288 437.77 316.422 440.658 321.501C442.067 323.98 443.2 324.764 442.614 327.72C442.092 330.357 442.011 335.821 440.132 337.825C438.47 339.598 435.817 339.237 434.195 341.531C432.533 343.882 431.82 347.115 431.068 349.853C429.449 355.756 428.492 362.01 432.304 367.247C433.055 368.279 434.172 369.18 434.448 370.454C434.741 371.807 433.83 374.005 433.586 375.382C433.177 377.693 433.191 381.711 431.44 383.422C430.299 384.537 428.419 384.732 427.108 385.608C425.787 386.491 424.795 387.779 423.939 389.094C421.951 392.148 420.697 395.698 419.887 399.232C419.094 402.69 418.231 406.857 419.612 410.271C420.634 412.798 423.297 414.337 423.519 417.156C423.71 419.576 422.753 422.677 421.904 424.913C420.813 427.793 418.746 427.981 416.417 429.866ZM432.434 476.971C431.03 478.443 428.876 477.735 427.033 478.414C423.856 479.583 421.266 482.58 419.083 485.035C419.68 481.722 418.265 479.034 418.214 475.866C418.173 473.325 420.26 470.48 421.417 468.289C422.866 465.547 423.432 465.676 426.244 465.03C428.747 464.455 430.96 462.843 432.004 460.449C432.527 461.928 435.215 463.103 434.744 464.905C434.745 468.193 434.871 474.416 432.434 476.971ZM447.968 419.823C447.44 422.433 447.763 426.838 445.779 428.892C444.79 429.915 443.161 429.68 441.898 430.193C439.833 431.032 437.808 432.909 436.361 434.578C435.673 431.868 434.018 430.836 434.535 427.916C434.993 425.33 435.425 422.463 436.088 419.905C436.683 417.609 437.579 417.613 439.576 416.332C442.268 414.604 443.856 412.158 444.971 409.191C445.214 412.873 448.684 416.193 447.968 419.823ZM493.141 135.229C492.947 137.784 493.093 140.365 492.767 142.911C492.384 145.912 491.207 147.069 489.335 149.227C485.985 153.089 486.573 158.522 485.825 163.263C485.216 167.119 483.287 172.454 485.177 176.195C486.107 178.036 488.162 178.893 489.261 180.589C490.633 182.706 490.097 185.359 489.755 187.71C489.487 189.555 489.633 191.9 489.001 193.647C488.282 195.638 485.959 196.54 484.488 197.934C480.776 201.452 480.988 207.753 480.734 212.478C480.474 217.303 478.625 225.088 482.527 228.754C484.276 230.398 485.52 231.186 485.342 233.782C485.202 235.822 484.99 238.63 484.113 240.486C483.212 242.393 481.189 243.81 479.876 245.451C478.123 247.641 477.084 249.848 476.461 252.57C475.253 257.843 473.948 263.533 474.376 268.972C474.571 271.451 475.201 273.724 476.41 275.887C477.602 278.018 478.816 279.412 478.458 281.929C478.172 283.944 477.641 285.895 476.086 287.278C474.264 288.898 472.078 289.815 470.648 291.906C468.311 295.324 467.837 300.493 466.894 304.467C465.895 308.677 464.782 313.543 466.185 317.796C466.856 319.829 468.422 320.883 469.414 322.628C470.605 324.726 469.68 327.201 469.255 329.463C468.84 331.674 468.848 334.021 467.013 335.496C465.319 336.857 463.441 337.499 462.027 339.307C458.979 343.205 458.085 348.46 457.335 353.217C456.417 359.035 456.729 362.758 459.585 367.92C461.051 370.568 460.182 372.498 459.411 375.335C458.889 377.253 458.861 379.752 457.859 381.469C456.598 383.629 453.818 383.748 451.902 385.16C449.615 386.846 447.634 389.754 446.774 392.437C446.847 390.432 445.892 388.902 445.406 387.065C444.94 385.307 445.294 383.725 445.589 381.965C446.199 378.321 445.779 373.195 448.902 370.817C452.313 368.22 453.942 366.106 455.086 361.885C456.329 357.302 457.444 352.39 456.775 347.62C456.216 343.639 452.931 340.58 453.718 336.546C454.38 333.153 454.265 329.426 457.648 327.724C460.512 326.283 462.523 324.871 463.53 321.683C465.008 317.003 465.536 311.466 465.969 306.58C466.274 303.148 465.827 300.148 463.764 297.308C462.762 295.929 461.885 295.313 461.739 293.535C461.588 291.694 462.368 289.71 462.687 287.914C463.37 284.064 464.286 283.018 467.021 280.257C469.918 277.333 470.879 273.261 471.8 269.374C472.693 265.604 473.72 261.363 473.24 257.466C473.019 255.666 472.462 254.005 471.22 252.653C470.297 251.648 468.949 251.115 468.606 249.698C468.16 247.859 469.375 244.292 470.145 242.637C471.754 239.179 475.465 238.222 476.714 234.231C477.952 230.271 478.637 225.881 479.372 221.796C480.181 217.305 480.9 212.219 478.44 208.115C477.458 206.477 475.943 205.26 474.9 203.698C473.852 202.128 474.075 201.08 474.201 199.269C474.32 197.565 474.016 195.28 474.806 193.71C475.67 191.996 477.438 191.389 478.981 190.391C477.715 191.039 479.936 189.367 480.383 188.725C481.073 187.733 481.498 186.583 481.854 185.437C482.647 182.883 482.866 180.185 483.097 177.534C483.373 174.355 483.86 171.103 483.674 167.908C483.446 164.001 481.556 163.164 479.493 160.268C478.095 158.304 478.666 156.042 478.732 153.732C478.836 150.128 479.444 148.739 482.081 146.285C486.986 141.722 486.327 134.628 486.876 128.398C487.328 131.064 494.021 132.404 493.141 135.229ZM113.135 336.757C111.977 335.943 110.53 335.512 109.765 334.274C108.522 332.264 108.39 328.439 108.083 326.172C107.769 323.855 108.222 323.167 109.636 321.385C111.29 319.3 112.181 317.274 112.225 314.566C112.313 309.152 110.561 303.417 109.478 298.152C109.011 295.885 108.566 293.588 107.177 291.679C105.645 289.572 103.218 288.807 101.487 286.976C98.168 283.467 99.446 279.356 101.602 275.808C104.283 271.396 103.975 266.244 103.205 261.304C102.489 256.708 101.967 250.884 99.201 247.014C97.839 245.109 95.883 243.648 94.589 241.699C93.181 239.581 92.992 237.01 92.766 234.538C92.354 230.034 96.633 228.851 97.391 224.523C98.226 219.756 97.528 213.902 97.213 209.103C97.049 206.598 96.757 204.021 95.933 201.636C95.014 198.971 93.295 197.805 91.169 196.165C87.785 193.555 87.866 187.913 87.903 183.866C87.93 180.934 89.94 179.807 91.575 177.641C93.401 175.225 93.168 172.735 92.932 169.83C92.485 164.323 92.273 157.57 90.25 152.355C89.323 149.965 87.258 148.621 86.138 146.447C84.966 144.171 85.249 141.022 84.956 138.53C84.677 136.154 84.488 134.244 86.43 132.61C87.951 131.331 90.664 130.679 91.053 128.397C91.54 133.929 90.695 140.685 94.662 145.178C97.322 148.192 99.027 148.669 99.195 153.073C99.288 155.527 99.895 158.173 98.432 160.271C96.563 162.954 94.74 164.516 94.372 168.022C94.052 171.075 94.555 174.242 94.809 177.286C95.021 179.826 95.23 182.391 95.904 184.859C96.245 186.108 96.674 187.405 97.386 188.501C97.894 189.283 100.111 190.987 98.947 190.391C100.57 191.442 102.25 192.043 103.057 193.912C103.723 195.453 103.467 197.393 103.718 199.03C103.941 200.487 104.393 201.683 103.833 203.109C103.157 204.833 101.106 206.038 100.034 207.492C97.656 210.718 97.822 214.861 98.33 218.648C98.852 222.533 99.367 226.521 100.116 230.369C100.873 234.259 102.093 237.293 105.245 239.777C107.848 241.828 108.585 244.366 109.104 247.594C109.655 251.03 107.317 251.231 105.765 253.889C103.918 257.054 104.761 261.398 105.149 264.838C105.586 268.714 106.222 272.77 107.857 276.347C109.412 279.747 113.341 281.075 114.613 284.388C115.654 287.097 116.795 292.574 115.716 295.269C114.317 298.763 111.568 299.801 111.653 304.099C111.729 307.929 112.582 312.004 113.105 315.812C113.568 319.185 114.26 322.992 116.747 325.526C119.222 328.048 122.443 327.757 123.286 331.672C123.626 333.252 124.004 335.017 124.149 336.629C124.356 338.926 123.401 340.413 122.576 342.48C121.183 345.967 120.669 350.748 121.124 355.44C120.697 352.979 120.024 350.528 119.534 348.347C118.543 343.926 116.992 339.471 113.135 336.757ZM125.545 384.797C123.786 383.486 121.564 383.418 120.327 381.439C119.23 379.684 119.031 377.183 118.409 375.216C117.749 373.127 116.946 371.138 117.773 368.999C118.679 366.656 120.702 365.12 121.257 362.558C121.58 361.069 121.586 359.465 121.436 357.83C122.158 362.032 123.706 365.965 126.166 368.586C127.313 369.807 129.231 370.416 130.196 371.728C131.373 373.33 131.33 376.086 131.651 377.988C132.041 380.31 132.943 383.032 132.833 385.384C132.719 387.835 131.062 389.921 131.154 392.437C130.24 389.584 127.929 386.573 125.545 384.797ZM136.459 430.416C134.695 429.498 133.051 429.557 131.895 427.769C130.739 425.98 130.258 423.176 129.961 421.134C129.278 416.435 132.666 413.628 132.959 409.193C134.074 412.159 135.662 414.605 138.354 416.333C140.343 417.61 141.244 417.609 141.836 419.895C142.5 422.458 142.936 425.327 143.395 427.918C143.913 430.838 142.257 431.87 141.569 434.58C140.148 432.937 138.395 431.423 136.459 430.416ZM158.929 479.586C158.486 481.373 158.531 483.227 158.846 485.035C156.832 482.77 154.552 479.971 151.694 478.744C149.611 477.85 147.206 478.362 145.67 476.548C143.99 474.564 143.788 470.772 143.487 468.319C143.297 466.777 142.819 464.913 143.566 463.45C144.162 462.282 145.484 461.748 145.926 460.449C147.122 463.194 149.429 464.468 152.22 464.931C155.546 465.482 156.11 466.393 157.404 469.541C158.191 471.456 160.1 473.949 160.029 475.963C159.985 477.196 159.221 478.405 158.929 479.586ZM159.573 428.463C157.283 427.016 156.72 427.609 156.109 424.767C155.615 422.471 154.06 418.8 154.495 416.452C154.969 413.893 157.804 412.085 158.549 409.433C159.337 406.625 159.169 403.587 158.659 400.748C157.752 395.692 155.541 389.088 151.101 386.057C149.42 384.909 146.788 384.379 145.682 382.567C144.395 380.459 144.514 376.066 144.02 373.625C143.314 370.141 144.031 369.613 145.926 366.747C147.689 364.08 148.255 360.921 148.159 357.763C148.006 352.728 146.657 344.433 143.066 340.672C141.415 338.942 138.836 339.171 137.38 337.428C136.002 335.779 136.003 332.622 135.736 330.608C135.482 328.688 134.503 326.234 135.226 324.419C136.278 321.778 138.231 320.606 138.604 317.467C139.24 312.106 137.734 305.595 135.805 300.594C134.744 297.842 133.301 296.138 130.804 294.617C127.968 292.889 126.92 291.599 126.521 288.198C126.28 286.143 125.762 284.11 126.813 282.292C128.429 279.5 130.892 277.682 131.553 274.336C132.226 270.923 131.451 267.244 130.79 263.89C130.193 260.862 129.768 257.573 128.336 254.8C126.949 252.114 124.376 251.75 122.55 249.661C121.321 248.255 120.979 245.933 120.637 244.134C120.212 241.901 119.994 240.269 121.3 238.346C123.247 235.481 125.042 233.807 125.026 230.117C124.999 224.337 124.962 216.533 122.037 211.387C120.482 208.65 117.943 206.688 116.05 204.242C114.509 202.25 114.396 199.515 114.094 197.072C113.622 193.246 114.788 192.934 117.305 190.531C119.846 188.104 120.041 185.228 119.983 181.813C119.916 177.869 119.238 173.923 118.603 170.037C118.114 167.047 117.546 163.932 115.382 161.672C113.403 159.605 110.878 158.782 110.54 155.643C110.262 153.071 109.954 149.675 111.938 147.771C113.051 146.703 114.635 146.312 115.548 145C116.52 143.601 116.46 141.802 116.467 140.185C116.486 135.688 116.066 131.158 115.469 126.706C121.043 127.321 126.6 127.972 132.163 128.663C135.227 129.043 139.173 128.244 139.539 131.848C139.704 133.476 140.128 135.859 139.268 137.32C138.361 138.86 135.905 139.528 134.622 140.719C131.731 143.406 132.482 147.233 132.77 150.79C133.173 155.773 133.284 160.845 133.859 165.805C134.357 170.103 136.891 170.676 139.465 173.574C141.286 175.626 141.89 181.733 140.925 184.341C139.484 188.233 134.719 189.728 135.964 194.76C135.465 193.549 135.872 195.581 135.875 195.765C135.889 196.705 136.025 197.685 136.116 198.625C136.3 200.531 136.536 202.432 136.757 204.334C137.13 207.544 136.973 211.435 138.461 214.378C139.599 216.63 141.647 217.386 142.071 219.962C142.48 222.454 143.37 226.209 142.383 228.606C141.481 230.795 139.173 231.998 138.456 234.343C137.368 237.904 138.897 242.424 139.5 245.96C140.411 251.299 140.291 257.533 144.171 261.78C145.63 263.377 147.742 264.248 148.498 266.366C149.431 268.976 149.582 272.585 147.96 274.862C146.148 277.408 144.453 278.912 144.618 282.319C144.783 285.708 145.835 289.205 146.477 292.532C147.123 295.88 147.355 299.411 148.192 302.706C148.987 305.836 150.909 307.08 153.232 309.032C154.916 310.448 155.302 312.09 155.414 314.342C155.563 317.334 153.468 318.648 151.87 320.95C148.112 326.364 150.754 333.655 151.749 339.604C152.21 342.359 152.386 345.274 153.098 347.978C153.92 351.099 155.881 352.149 157.987 354.285C161.323 357.667 161.159 364.366 158.994 368.198C155.41 374.543 157.465 380.946 158.915 387.714C159.451 390.219 159.788 393.072 161.101 395.325C162.446 397.631 164.81 398.141 166.54 399.905C168.09 401.486 167.986 404.294 168.31 406.441C168.908 410.395 167.579 412.602 166.284 416.213C163.797 423.143 166.84 431.481 168.709 438.275C169.506 441.171 170.473 443.608 173.044 445.268C175.765 447.024 177.283 447.835 178.316 451.09C179.361 454.385 180.44 456.096 179.198 459.432C177.873 462.988 178.801 465.662 180.699 468.851C182.686 472.188 184.881 475.797 187.512 478.669C189.642 480.995 192.859 481.464 194.993 483.722C196.196 484.996 198.244 487.753 197.963 489.448C197.709 490.983 195.719 492.774 195.051 494.25C194.385 495.721 194.022 497.147 194.326 498.755C194.657 500.512 195.768 502.278 197.082 503.932C196.431 503.252 195.753 502.602 195.004 502.046C192.801 500.412 190.258 501.182 188.131 499.899C186.558 498.95 185.142 496.285 184.416 494.662C183.453 492.51 184.127 490.815 184.12 488.579C184.105 483.417 180.012 477.922 176.472 474.488C175.585 473.628 174.591 472.628 173.458 472.081C172.337 471.539 171.026 471.703 169.929 471.202C168.167 470.397 167.872 468.543 167.134 466.872C166.347 465.089 165.566 464.254 166.554 462.518C167.715 460.476 169.335 459.317 170.019 456.885C172.537 447.924 167.501 433.487 159.573 428.463ZM159.781 158.617C159.634 155.526 159.632 152.429 159.351 149.345C159.147 147.107 159.31 144.321 158.127 142.364C156.959 140.431 154.603 139.877 153.273 138.138C151.689 136.067 152.415 133.288 152.304 130.888C163.203 131.68 174.08 132.324 185.003 132.669C188.174 132.769 190.865 131.858 190.033 136.139C189.42 139.294 186.427 139.697 184.882 142.175C182.723 145.637 184.694 151.448 185.079 155.164C185.491 159.133 185.116 165.224 187.259 168.76C188.824 171.344 191.07 171.709 191.393 175.01C191.769 178.849 191.978 180.551 189.265 183.281C182.805 189.783 184.366 198.022 185.676 206.43C186.309 210.493 186.796 213.787 190.095 216.303C192.99 218.511 193.265 220.753 192.81 224.431C192.322 228.378 189.354 231.332 188.237 235.141C186.85 239.869 188.341 245.158 188.927 249.933C189.409 253.855 189.102 257.49 192.408 260.12C195.43 262.524 196.395 263.979 195.994 268.168C195.688 271.367 192.853 273.587 191.32 276.296C188.805 280.739 189.81 284.625 190.912 289.346C191.731 292.856 191.262 297.533 193.191 300.6C195.072 303.59 198.57 304.354 199.667 307.967C200.713 311.41 200.386 313.387 198.288 316.038C195.397 319.693 194.989 323.86 195.627 328.344C196.169 332.154 196.833 336.001 197.458 339.799C198.187 344.237 200.755 345.573 204.195 348.038C207.143 350.15 207.188 352.449 208.108 355.71C208.445 356.907 209.1 358.475 208.774 359.752C208.373 361.324 206.18 362.841 205.165 364.131C202.153 367.955 202.07 371.369 203.24 376.01C204.166 379.684 204.74 384.002 206.272 387.474C207.728 390.773 211.181 391.411 213.202 394.123C214.906 396.41 216.441 402.197 215.085 404.861C214.19 406.62 212.425 407.775 211.612 409.603C210.768 411.499 211.044 413.259 211.525 415.191C212.858 420.542 214.391 425.984 216.153 431.211C216.878 433.361 217.495 436.025 219.217 437.606C220.461 438.747 222.218 439.037 223.557 440.023C225.458 441.422 227.825 445.079 226.851 447.442C226.307 448.762 224.166 450.19 223.261 451.382C221.646 453.509 220.928 455.224 221.597 457.873C222.906 463.054 225.216 469.207 227.849 473.853C228.925 475.753 230.293 477.542 232.227 478.634C234.042 479.659 235.893 479.549 236.95 481.597C237.658 482.968 238.82 485.744 238.776 487.264C238.716 489.347 236.757 491.408 235.919 493.21C233.761 497.852 235.995 502.015 237.779 506.425C239.196 509.929 240.519 516.326 244.245 518.145C238.125 518.304 236.974 511.259 232.64 508.122C230.615 506.656 228.059 507.386 226.351 505.583C224.89 504.041 224.663 502.04 225.418 500.204C226.656 497.197 227.499 495.542 225.447 492.555C224.007 490.459 222.172 488.319 220.381 486.526C218.857 485.001 217.2 483.961 215.123 483.382C212.572 482.671 209.82 483.2 207.916 481.082C203.835 476.543 209.549 470.672 207.952 465.527C206.478 460.778 201.993 455.465 197.898 452.803C193.692 450.069 190.941 448.673 191.864 443.178C192.235 440.97 193.023 438.832 193.795 436.738C194.206 435.624 194.658 434.523 195.041 433.399C195.148 433.085 195.671 430.776 195.708 431.711C196.815 426.775 194.362 421.122 192.889 416.482C192.179 414.244 191.413 411.97 189.438 410.521C187.39 409.019 184.185 409.163 182.44 407.253C180.219 404.821 179.822 399.137 181.626 396.5C182.852 394.709 184.766 393.478 185.907 391.614C187.332 389.284 187.246 386.362 187.002 383.723C186.558 378.918 185.706 371.452 182.326 367.767C179.396 364.572 171.758 363.214 172.774 357.577C173.17 355.377 175.46 353.687 176.779 352.029C178.861 349.41 180.243 346.708 180.249 343.302C180.259 337.705 178.352 331.583 177.124 326.143C176.617 323.898 176.218 321.383 174.619 319.633C172.63 317.456 169.564 316.649 167.397 314.715C165.913 313.391 165.025 311.093 165.335 309.055C165.705 306.621 168.101 306.213 169.617 304.509C172.944 300.77 170.944 294.851 170.407 290.428C169.732 284.874 168.894 279.344 164.967 275.086C162.979 272.93 162.195 271.636 161.648 268.717C161.311 266.919 160.131 264.196 160.831 262.415C161.622 260.402 164.349 259.094 165.448 257.131C166.971 254.409 166.313 251.052 165.803 248.134C164.828 242.554 164.666 236.728 160.7 232.349C159.194 230.686 157.004 229.254 155.859 227.305C154.798 225.498 154.506 221.799 154.821 219.701C155.235 216.939 157.872 215.382 159.349 213.173C161.124 210.521 161.124 207.826 160.874 204.729C160.325 197.934 160.011 191.24 154.758 186.517C152.409 184.406 152.336 182.554 152.338 179.495C152.34 177.306 151.314 173.938 152.713 172.104C154.405 169.886 157.559 169.9 159.012 167.16C160.38 164.586 159.913 161.407 159.781 158.617ZM210.473 164.156C211.052 162.831 211.256 161.336 211.354 159.909C211.543 157.148 211.164 154.362 210.716 151.644C210.779 151.888 210.843 152.131 210.906 152.375C210.737 148.521 210.824 144.647 208.127 141.576C207.077 140.38 205.523 139.609 204.631 138.282C203.57 136.705 203.735 134.812 203.504 132.999C219.191 132.99 234.884 133.997 250.567 133.219C250.21 136.639 249.186 140.17 251.806 142.946C253.956 145.224 256.18 145.248 256.03 148.761C255.946 150.726 256.692 154.441 255.288 155.854C252.979 158.179 249.789 156.966 248.549 160.83C247.495 164.116 247.978 168.507 247.922 171.931C247.873 174.975 247.49 178.798 248.602 181.697C250.32 186.178 259.875 185.698 255.326 192.136C253.711 194.422 251.009 195.701 249.759 198.307C248.297 201.357 248.863 205.325 248.605 208.611C248.34 211.983 247.661 215.633 248.148 219.013C248.667 222.614 250.981 223.761 253.706 225.772C255.627 227.19 256.055 228.789 255.527 231.254C254.891 234.229 251.954 235.559 250.733 238.31C249.528 241.024 249.692 244.232 249.651 247.132C249.598 250.884 249.027 255.868 250.325 259.461C251.154 261.756 253.11 262.197 254.665 263.725C256.131 265.165 255.677 267.778 255.278 269.848C254.716 272.762 252.772 273.949 250.858 275.995C248.329 278.698 248.268 281.693 248.166 285.21C248.006 290.706 245.996 300.336 251.195 304.154C252.985 305.469 255.431 305.939 256.01 308.262C256.85 311.628 253.597 312.687 251.914 314.836C249.851 317.468 250.148 320.864 250.094 324.022C250.043 326.995 249.627 329.938 249.478 332.905C249.339 335.678 249.197 338.929 250.536 341.469C251.903 344.062 255.604 345.227 256.458 347.966C258.54 354.644 250.862 356.102 249.706 361.544C249.074 364.522 249.611 367.634 249.712 370.636C249.811 373.597 249.525 376.662 250.244 379.569C251.162 383.281 253.154 383.785 256.001 385.653C258.444 387.256 258.035 389.456 257.675 392.185C257.281 395.17 255.938 396.553 253.945 398.703C251.781 401.036 251.449 403.184 251.15 406.25C250.695 410.904 248.897 419.955 252.841 423.604C255.051 425.649 258.175 424.931 258.781 428.381C259.015 429.709 259.26 431.949 258.831 433.223C258.158 435.222 256.342 435.495 255.039 436.957C255.812 435.833 253.856 437.908 253.68 438.197C253.11 439.137 252.977 440.292 252.872 441.359C252.674 443.368 253.039 445.398 253.115 447.404C253.28 451.727 252.275 458.347 255.982 461.494C257.519 462.798 260.111 462.961 261.057 464.922C261.828 466.519 261.783 470.395 261.748 472.205C261.689 475.229 259.32 474.613 257.663 476.702C256.117 478.653 255.879 482.329 256.175 484.706C254.37 483.745 251.284 483.1 250.196 481.212C248.962 479.07 251.146 476.382 252.249 474.603C253.982 471.807 254.843 469.623 254.018 466.269C253.1 462.533 251.551 458.807 250.201 455.208C249.197 452.53 248.498 448.46 246.413 446.421C244.615 444.663 241.565 445.124 239.887 443.242C235.367 438.172 240.703 435.181 243.014 431.008C244.613 428.12 243.781 425.112 242.957 422.108C241.967 418.502 240.964 414.891 239.788 411.341C238.787 408.318 237.952 405.722 235.225 403.865C232.877 402.266 229.353 401.473 228.045 398.72C227.021 396.564 226.539 393.727 227.76 391.666C229.435 388.838 231.981 387.084 232.773 383.683C233.542 380.376 232.637 376.819 231.784 373.614C230.942 370.451 230.29 366.656 228.313 363.97C226.55 361.576 223.917 360.522 221.516 358.938C218.827 357.164 218.888 353.89 218.371 350.889C217.14 343.741 227.323 340.409 225.525 332.617C226.037 334.479 225.619 332.33 225.599 331.982C225.537 330.843 225.326 329.694 225.154 328.567C224.842 326.53 224.484 324.476 223.991 322.475C223.318 319.742 222.287 317.623 219.953 315.958C216.027 313.157 208.67 310.572 212.84 304.348C214.495 301.878 217.289 300.293 218.541 297.535C219.998 294.324 219.155 290.743 218.755 287.398C218.385 284.311 218.791 280.705 217.295 277.879C215.687 274.84 212.392 273.397 210.244 270.856C208.318 268.578 207.595 264.66 207.975 261.688C208.395 258.399 211.554 256.825 213.087 254.161C214.862 251.075 214.018 247.358 213.621 244.036C213.207 240.57 213.518 236.216 211.929 233.037C209.608 228.393 202.268 226.589 204.727 219.926C205.848 216.887 209.345 214.943 210.556 211.855C211.815 208.646 211.005 205.156 210.652 201.853C210.238 197.978 210.83 193.34 209.098 189.756C207.559 186.57 204.105 184.933 202.833 181.548C201.835 178.892 201.155 174.663 202.773 172.139C204.389 169.619 207.784 168.743 209.184 166.025C208.839 166.873 210.267 164.627 210.473 164.156ZM256.08 532.275C255.959 534.271 249.644 537.759 247.851 537.811C244.512 537.907 240.344 533.835 238.859 531.11C241.157 530.288 256.228 529.818 256.08 532.275ZM237.866 549.289C236.136 557.759 217.823 547.711 222.789 538.193C227.493 529.179 238.432 543.495 237.866 549.289ZM204.005 513.973C203.391 511.663 201.63 509.641 200.222 507.749C199.865 507.27 199.502 506.788 199.129 506.31C199.832 507.082 200.514 507.809 201.099 508.473C204.074 511.851 207.515 511.599 211.762 512.044C211.16 514.256 211.307 517.007 210.169 519.039C208.696 521.669 206.526 520.556 203.998 521.232C204.128 518.842 204.633 516.335 204.005 513.973ZM164.745 497.68C166.729 499.528 169.15 500.712 171.789 501.171C173.927 501.543 174.437 501.532 175.701 503.22C177.372 505.451 179.137 507.939 175.68 509.817C174.146 510.65 170.232 510.272 168.819 509.296C167.72 508.537 165.34 505.721 164.857 504.575C163.959 502.447 165.196 499.897 164.745 497.68ZM162.573 540.43C162.695 540.128 163.866 536.87 163.213 536.764C165.352 536.591 167.878 535.706 170.007 536.352C172.085 536.983 173.734 538.853 175.631 539.901C177.978 541.197 180.301 541.955 182.991 542.072C186.331 542.217 187.553 543.106 189.881 545.374C191.253 546.71 191.906 547.265 192.145 549.205C192.386 551.159 192.495 552.745 193.2 554.649C194.229 557.428 196.383 562.482 199.775 563.054C193.397 562.918 187.033 562.48 180.667 562.097C177.729 561.92 174.79 561.749 171.849 561.627C169.107 561.513 165.06 560.741 162.47 561.585C165.363 556.781 162.239 548.646 159.136 544.629C160.727 543.649 161.877 542.147 162.573 540.43ZM152.917 587.381C154.155 592.312 154.587 597.34 154.917 602.398C155.06 604.596 154.317 610.999 155.916 612.727C155.04 612.842 154.161 612.929 153.279 612.988C153.007 604.454 153.534 595.904 152.917 587.381ZM158.727 667.072C158.079 667.05 157.434 667.083 156.792 667.173C156.409 659.415 156.076 651.656 155.494 643.91C155.232 640.423 155.001 636.933 154.742 633.446C154.679 632.596 153.95 626.365 156.792 628.43C157.438 628.899 157.437 634.019 157.529 634.7C157.972 637.953 158.493 641.196 158.883 644.457C159.782 651.976 160.056 659.551 160.535 667.103C159.932 667.107 159.329 667.097 158.727 667.072ZM165.648 707.043C164.342 707.103 162.97 706.913 161.699 707.304C161.308 702.888 161.545 698.445 161.37 694.02C161.286 691.897 161.07 689.768 161.042 687.644C161.022 686.174 161.392 684.418 160.768 683.036C161.627 683.123 162.477 683.07 163.319 682.875C163.665 687.359 164.403 691.785 165.054 696.231C165.578 699.811 165.738 703.593 167.148 706.968C166.65 707.043 166.15 707.068 165.648 707.043ZM200.797 753.215C196.47 755.735 192.079 758.129 187.551 760.271C183.718 762.084 179.29 765.04 174.94 765.231C168.956 765.494 170.182 757.232 170.018 753.32C175.951 753.205 181.885 753.035 187.817 752.879C192.23 752.763 198.039 754.124 202.21 752.403C201.747 752.686 201.276 752.957 200.797 753.215ZM264.449 744.016C263.412 746.055 255.976 744.084 253.639 745C257.221 743.327 260.848 741.753 264.46 740.146C264.457 741.295 265.006 742.921 264.449 744.016ZM264.102 700.293C262.76 701.463 258.006 700.991 256.335 701.051C252.735 701.181 249.134 701.233 245.534 701.377C231.082 701.953 216.625 702.467 202.161 702.559C196.587 702.594 190.888 703.182 185.324 702.824C182.572 702.647 180.367 701.693 179.357 698.987C177.469 693.932 180.267 688.159 178.263 683.11C192.673 684.074 207.103 684.371 221.539 684.659C235.89 684.945 250.277 685.998 264.613 684.804C264.604 688.483 264.577 692.163 264.584 695.842C264.587 697.032 265.092 699.431 264.102 700.293ZM267.248 631.837C266.885 632.475 265.857 632.469 265.393 632.996C264.6 633.896 264.647 634.957 264.626 636.08C264.575 638.751 264.725 641.451 264.718 644.127C264.703 650.026 264.404 656.011 264.824 661.895C264.925 663.306 265.532 665.993 264.499 667.205C263.412 668.482 260.363 667.989 258.748 668.089C252.761 668.461 246.776 668.864 240.783 669.119C227.827 669.671 214.87 669.655 201.91 669.241C195.598 669.04 189.313 668.53 183.017 668.065C181.836 667.978 177.937 668.431 176.922 667.671C175.583 666.669 175.991 662.789 175.844 661.163C175.195 654.014 174.363 646.81 173.45 639.689C173.144 637.305 172.884 635.138 173.006 632.749C173.076 631.371 173.712 628.007 172.381 626.969C179.928 626.132 187.545 626.498 195.121 626.384C203.107 626.264 211.09 626.048 219.069 625.716C235.136 625.048 251.228 626.136 267.287 625.244C267.275 626.844 268.091 630.353 267.248 631.837ZM267.547 607.194C267.038 608.396 267.386 608.305 265.718 608.561C257.692 609.794 249.137 609.332 241.03 609.655C232.73 609.985 224.431 610.397 216.123 610.468C208.101 610.537 200.159 610.699 192.149 611.236C188.475 611.482 184.788 611.728 181.103 611.656C177.593 611.587 173.923 611.109 170.498 612.127C169.822 605.749 169.067 599.463 168.766 593.052C168.628 590.107 168.388 587.156 168.37 584.208C168.359 582.415 168.822 579.754 167.727 578.19C178.828 578.522 189.897 580.035 201 580.569C212.355 581.115 223.694 582.033 235.041 582.734C240.604 583.078 246.168 583.421 251.73 583.799C254.379 583.979 257.027 584.19 259.678 584.343C261.37 584.44 264.578 583.917 266.183 584.62C266.546 584.632 266.907 584.645 267.27 584.657C267.28 585.647 267.291 586.638 267.303 587.628C267.318 588.873 267.337 590.118 267.354 591.362C267.391 594.1 267.428 596.839 267.453 599.577C267.471 601.617 268.317 605.376 267.547 607.194ZM289.375 89.778C284.714 89.634 280.051 89.675 275.389 89.666L261.402 89.657L247.415 89.656L233.432 89.895C214.779 89.976 196.145 90.705 177.501 91.314C168.188 91.76 158.857 92.054 149.55 92.651L135.574 93.432C130.914 93.688 126.271 94.116 121.613 94.421C102.986 95.709 84.383 97.367 65.808 99.701C84.023 95.297 102.572 92.387 121.132 89.8C139.71 87.264 158.372 85.392 177.065 83.932C186.405 83.067 195.769 82.658 205.13 82.103C214.489 81.492 223.86 81.282 233.228 80.916L247.285 80.483L261.345 80.373L275.406 80.271C280.093 80.243 284.781 80.166 289.466 80.273L317.578 80.878L324.605 81.034L331.627 81.337C336.308 81.548 340.99 81.719 345.669 81.977L359.706 82.697L366.724 83.057L373.734 83.555C383.08 84.213 392.42 84.954 401.755 85.728C406.421 86.131 411.095 86.431 415.753 86.92L429.725 88.406L457.643 91.527C462.296 92.032 466.925 92.767 471.563 93.408L485.464 95.418C494.726 96.792 503.981 98.185 513.216 99.703C503.857 99.238 494.519 98.649 485.188 98.041C475.852 97.485 466.548 96.633 457.211 96.179L429.229 94.622L415.251 93.769C410.594 93.466 405.924 93.353 401.262 93.136C391.933 92.767 382.61 92.365 373.292 91.88L366.302 91.552L359.307 91.362L345.318 90.981C340.655 90.872 335.995 90.676 331.334 90.52L324.343 90.273L317.348 90.174L289.375 89.778ZM313.144 665.308C313.107 662.09 313.249 658.836 313.241 655.608C313.224 649.101 313.449 642.541 313.206 636.04C313.171 635.086 313.207 634.099 312.753 633.223C312.379 632.502 311.238 632.091 310.969 631.607C310.005 629.872 310.655 627.167 310.644 625.246C326.704 626.138 342.795 625.05 358.862 625.718C366.841 626.05 374.824 626.265 382.809 626.386C390.385 626.5 398.002 626.134 405.549 626.971C403.73 628.391 405.013 635.843 404.783 638.012C404.038 645.027 403.125 652.026 402.322 659.035C402.137 660.65 402.463 665.418 401.496 666.783C400.269 668.515 396.657 667.951 394.696 668.08C387.426 668.559 380.151 668.956 372.869 669.199C358.365 669.683 343.798 669.654 329.311 668.758C324.813 668.48 320.096 668.708 315.629 668.181C313.264 667.901 313.172 667.709 313.144 665.308ZM323.398 744.724C321.626 744.638 319.854 744.671 318.082 744.695C317.24 744.706 314.952 745.174 314.207 744.722C312.617 743.756 313.473 741.803 313.468 740.146C317.08 741.753 320.707 743.327 324.289 745C323.992 744.908 323.695 744.816 323.398 744.724ZM332.313 701.375C328.563 701.224 324.809 701.158 321.058 701.024C319.166 700.956 316.584 701.404 314.785 700.828C312.604 700.129 313.33 698.345 313.344 696.244C313.37 692.431 313.325 688.617 313.315 684.804C327.652 685.986 342.039 684.944 356.39 684.659C370.826 684.373 385.256 684.074 399.666 683.111C397.253 688.387 401.144 695.095 398.026 700.142C395.156 704.788 385.923 702.765 381.523 702.67C365.116 702.316 348.713 702.036 332.313 701.375ZM407.736 760.02C406.91 767.276 401.348 765.165 396.607 763.041C389.452 759.835 382.524 756.302 375.72 752.402C378.401 753.508 381.498 753.023 384.303 752.885C387.49 752.728 390.678 752.905 393.866 752.967C397.144 753.031 400.421 753.119 403.698 753.212C404.634 753.24 405.57 753.265 406.507 753.288C407.892 752.85 408.362 753.31 407.918 754.668C408.415 756.043 408.111 758.644 407.736 760.02ZM409.966 579.587C408.927 590.418 408.577 601.304 407.431 612.126C404.42 611.23 401.183 611.626 398.098 611.69C394.583 611.763 391.056 611.579 387.548 611.377C379.46 610.912 371.442 610.394 363.335 610.494C355.547 610.59 347.797 609.96 340.018 609.685C332.176 609.407 324.26 609.662 316.439 609.039C314.894 608.916 311.311 609.197 310.4 607.843C310.064 607.343 310.439 605.352 310.445 604.837C310.472 602.694 310.463 600.55 310.483 598.407C310.513 595.176 310.662 591.93 310.599 588.7C310.564 586.869 309.783 585.045 311.662 584.452C314.005 583.712 317.811 584.397 320.251 584.301C324.236 584.143 328.221 583.972 332.204 583.772C340.421 583.36 348.635 582.834 356.828 582.071C365.553 581.258 374.265 580.91 383.011 580.412C392.093 579.894 401.106 578.463 410.202 578.19C409.992 578.633 409.914 579.099 409.966 579.587ZM416.973 684.58C416.692 692.153 416.895 699.748 416.231 707.304C414.484 706.767 412.578 707.06 410.783 706.968C412.191 703.596 412.354 699.807 412.877 696.231C413.528 691.786 414.267 687.359 414.612 682.875C415.453 683.079 416.303 683.132 417.163 683.036C416.998 683.538 416.934 684.052 416.973 684.58ZM423.207 633.605C422.836 639.838 422.157 646.049 421.857 652.287C421.618 657.249 421.382 662.211 421.138 667.173C419.903 666.966 418.636 667.102 417.394 667.102C418.137 655.302 419.812 643.667 420.761 631.908C420.857 630.715 420.334 628.62 421.737 628.223C424.32 627.495 423.278 632.417 423.207 633.605ZM425.013 595.159C424.887 601.102 424.838 607.046 424.651 612.987C423.769 612.928 422.89 612.841 422.014 612.726C423.004 611.656 422.639 609.475 422.67 608.167C422.72 606.04 422.911 603.915 423.052 601.791C423.374 596.935 423.829 592.114 425.013 587.38C424.823 589.971 425.07 592.567 425.013 595.159ZM535.267 546.974C538.464 547.627 541.748 547.869 544.88 548.823C541.629 549.143 538.175 549.587 535.177 550.963C535.055 549.539 534.853 548.119 534.625 546.708C534.839 546.797 535.053 546.885 535.267 546.974ZM521.72 616.992C524.335 606.606 527.318 596.287 529.582 585.819C530.718 580.565 531.862 575.314 533.011 570.063C533.245 568.993 533.239 567.702 534.099 567.018C534.991 566.308 537.08 566.616 538.163 566.345C536.009 570.515 535.264 575.268 534.39 579.828C533.401 584.994 532.131 590.104 530.893 595.215C528.408 605.476 524.73 615.858 523.757 626.404C522.266 625.977 520.773 625.555 519.271 625.166C520.342 622.525 521.021 619.747 521.72 616.992ZM519.549 646.679C519.118 649.269 513.988 649.657 512.121 650.553C512.325 649.684 512.529 648.815 512.733 647.947C512.976 646.893 513.219 645.839 513.46 644.785C515.464 645.492 517.503 646.101 519.549 646.679ZM437.536 631.844C439.335 632.407 442.305 631.852 444.251 632.142C446.989 632.551 449.736 632.841 452.487 633.151C458.902 633.875 465.307 634.664 471.678 635.715C477.726 636.712 483.734 637.911 489.715 639.245C492.327 639.827 494.991 640.335 497.578 641.008C499.483 641.504 499.628 641.358 499.897 643.065C499.186 646.671 499.467 654.127 496.312 656.617C494.305 658.201 490.66 658.42 488.228 658.997C484.622 659.853 480.997 660.594 477.326 661.112C463.506 663.061 449.467 663.704 435.543 664.465C435.821 657.592 436.399 650.737 436.877 643.876C436.948 642.86 437.972 631.98 437.536 631.844ZM496.128 620.315C486.083 618.548 476.058 616.672 465.952 615.275C461.08 614.601 456.22 613.886 451.336 613.308C447.106 612.807 442.814 611.755 438.531 612.055C439.529 607.416 439.317 602.625 439.44 597.913C439.572 592.866 439.904 587.819 440.14 582.776C440.239 580.656 439.529 576.662 441.476 575.393C442.607 574.657 445.223 574.854 446.501 574.691C449.036 574.369 451.569 574.046 454.118 573.843C464.093 573.05 474.121 573.169 484.113 572.696C494.24 572.217 504.328 571.139 514.454 570.63C512.942 576.229 512.654 582.075 511.582 587.76C510.45 593.762 509.25 599.756 508.053 605.745C507.454 608.743 506.764 611.714 506.043 614.685C505.658 616.273 505.617 619.44 504.728 620.788C503.275 622.989 498.259 620.687 496.128 620.315ZM432.866 552.507C435.181 548.061 437.161 543.413 436.871 538.292C439.312 539.453 442.736 538.602 445.345 538.643C449.712 538.71 454.096 539.11 458.456 539.359C468.135 539.91 477.777 540.847 487.441 541.593C490.57 541.834 494.461 541.423 497.487 542.243C500.239 542.989 499.396 547.184 500.812 549.594C504.107 555.201 513.075 552.98 516.853 549.055C516.694 550.034 517.095 551.583 516.556 552.469C515.809 553.697 513.932 553.664 512.62 553.91C508.105 554.754 503.562 555.105 498.995 555.557C490.078 556.44 481.152 557.018 472.216 557.668C463.606 558.294 455.055 559.515 446.441 560.074C442.553 560.326 442.523 560.416 440.058 557.672C437.925 555.297 435.282 554.006 432.15 553.471C432.388 553.149 432.627 552.828 432.866 552.507ZM432.274 690.639C432.469 688.514 431.917 682.006 433.891 680.782C434.586 680.351 436.114 680.615 436.937 680.552C439.026 680.391 441.115 680.08 443.198 679.858C451.486 678.975 459.775 678.08 468.046 677.056C476.37 676.026 484.994 675.351 493.227 673.83C489.858 681.529 488.977 690.804 487.336 699C486.439 703.482 485.426 707.932 484.427 712.392C483.962 714.468 484.218 717.156 482.074 717.726C481.104 717.984 479.558 717.54 478.53 717.518C476.321 717.471 474.108 717.528 471.898 717.506C467.237 717.459 462.577 717.335 457.919 717.173C448.512 716.845 439.107 716.405 429.704 715.986C430.655 707.546 431.5 699.096 432.274 690.639ZM484.475 752.483C478.32 752.354 472.244 751.607 466.137 750.887C459.552 750.11 452.882 749.798 446.412 748.257C443.54 747.573 440.78 746.681 438.014 745.661C434.864 744.498 434.824 744.272 435.077 741.071C445.845 743.78 457.697 744.349 468.743 745.227C474.162 745.657 479.612 745.846 485.006 746.553C487.64 746.899 490.257 747.362 492.891 747.705C492.992 747.718 497.806 748.336 497.657 748.514C494.542 752.361 489.014 752.578 484.475 752.483ZM512.893 670.044C509.249 685.105 505.965 700.256 502.785 715.42C502.122 718.581 501.326 721.737 500.805 724.924C500.468 726.986 500.534 729.417 499.718 731.364C498.117 735.185 492.517 732.591 489.251 732.474C493.77 731.065 495.509 725.873 496.546 721.746C497.894 716.375 498.872 710.914 500.21 705.531C502.126 697.821 503.735 690.04 505.613 682.322C506.333 679.364 506.743 676.322 507.491 673.381C508.369 669.928 510.234 669.903 513.315 669.097C513.174 669.413 513.033 669.728 512.893 670.044ZM537.362 663.123C534.006 675.21 531.512 687.51 528.819 699.755C527.5 705.752 526.136 711.74 524.596 717.684C523.825 720.66 523.066 723.629 522.397 726.631C521.958 728.604 521.91 731.82 520.866 733.582C520.134 734.819 519.823 734.897 518.222 734.979C517.158 735.033 514.323 735.129 513.582 734.162C512.286 732.47 514.821 725.411 515.198 723.47C517.582 711.207 520.805 699.115 523.238 686.852C524.467 680.657 525.805 674.477 526.841 668.25C527.238 665.864 527.465 665.132 529.824 664.477C532.426 663.754 535.111 663.297 537.725 662.572C537.606 662.755 537.484 662.939 537.362 663.123ZM554.019 595.442C551.658 608.462 547.957 621.437 544.981 634.339C543.272 633.329 541.472 632.485 539.641 631.722C538.801 631.372 534.564 630.437 534.07 629.652C533.711 629.083 535.35 624.759 535.543 623.769C535.936 621.756 536.243 619.728 536.577 617.704C537.993 609.129 540.18 600.647 542.556 592.293C544.923 583.973 547.001 575.571 548.926 567.137C549.734 563.596 549.972 563.54 553.427 562.606C554.853 562.22 562.216 560.363 562.607 559.528C559.23 571.083 555.911 585.008 554.019 595.442Z" fill="#141414"/>
</svg>
