<svg width="664" height="226" viewBox="0 0 664 226" fill="none" xmlns="http://www.w3.org/2000/svg">
<ellipse cx="495.519" cy="125.655" rx="106" ry="37.5" fill="#C4C4C4"/>
<ellipse rx="92.5058" ry="35.0292" transform="matrix(-0.999919 -0.0126906 0.0280444 -0.999607 496.215 120.049)" fill="white"/>
<path d="M560.015 109.014C560.104 111.663 558.502 114.332 555.317 116.895C552.14 119.452 547.468 121.838 541.619 123.915C529.928 128.067 513.649 130.95 495.558 131.562C477.468 132.174 461.031 130.399 449.086 127.047C443.11 125.37 438.287 123.306 434.945 120.97C431.594 118.627 429.814 116.073 429.725 113.424C429.635 110.776 431.238 108.107 434.422 105.543C437.599 102.987 442.272 100.601 448.12 98.524C459.812 94.3717 476.091 91.4892 494.181 90.8769C512.272 90.2646 528.708 92.0397 540.654 95.392C546.629 97.0689 551.453 99.1328 554.795 101.469C558.146 103.812 559.925 106.366 560.015 109.014Z" fill="#9C9696" stroke="#C4C4C4"/>
<path d="M563.015 107.014C563.104 109.663 561.502 112.332 558.317 114.895C555.14 117.452 550.468 119.838 544.619 121.915C532.928 126.067 516.649 128.95 498.558 129.562C480.468 130.174 464.031 128.399 452.086 125.047C446.11 123.37 441.287 121.306 437.945 118.97C434.594 116.627 432.814 114.073 432.725 111.424C432.635 108.776 434.238 106.107 437.422 103.543C440.599 100.987 445.272 98.6012 451.12 96.524C462.812 92.3717 479.091 89.4892 497.181 88.8769C515.272 88.2646 531.708 90.0397 543.654 93.392C549.629 95.0689 554.453 97.1328 557.795 99.4691C561.146 101.812 562.925 104.366 563.015 107.014Z" fill="white" stroke="#C4C4C4"/>
<path d="M601.519 124.155C601.519 129.138 599.154 134.231 594.161 139.235C589.152 144.256 581.703 148.962 572.179 152.999C553.147 161.068 526.577 166.155 497.019 166.155C467.462 166.155 440.891 161.068 421.86 152.999C412.336 148.962 404.887 144.256 399.878 139.235C394.884 134.231 392.519 129.138 392.519 124.155C392.519 119.172 394.884 114.08 399.878 109.075C404.887 104.054 412.336 99.3487 421.86 95.3111C440.891 87.2423 467.462 82.1553 497.019 82.1553C526.577 82.1553 553.147 87.2423 572.179 95.3111C581.703 99.3487 589.152 104.054 594.161 109.075C599.154 114.08 601.519 119.172 601.519 124.155Z" stroke="#414241" stroke-width="8" stroke-linejoin="round"/>
<path fill-rule="evenodd" clip-rule="evenodd" d="M46.658 25.5866C107.404 16.129 183.497 12.3793 265.792 16.2727C461.59 25.5357 618.352 74.5552 615.929 125.761C613.507 176.966 452.817 210.968 257.02 201.704C187.092 198.396 122.144 190.017 67.6482 178.279C128.366 193.361 204.021 204.166 286.329 208.06C489.543 217.674 656.36 181.516 658.925 127.298C661.49 73.0803 498.832 21.3346 295.617 11.7207C200.192 7.20617 112.793 12.7847 46.658 25.5866Z" fill="#25C372"/>
<path fill-rule="evenodd" clip-rule="evenodd" d="M1.90472 73.4382C38.6903 66.3357 84.912 62.5329 135.041 63.4205C254.309 65.5322 350.532 93.3954 349.961 125.655C349.39 157.914 252.241 182.353 132.973 180.241C90.3772 179.487 50.7211 175.448 17.3638 169.097C54.5648 177.433 100.777 182.796 150.914 183.683C274.699 185.875 375.538 159.962 376.143 125.806C376.747 91.6489 276.889 62.1826 153.104 59.9908C94.9766 58.9616 41.9094 64.1296 1.90472 73.4382Z" fill="#40C0FA" fill-opacity="0.75"/>
</svg>
